<svg width="565" height="631" viewBox="0 0 565 631" fill="none" xmlns="http://www.w3.org/2000/svg">
<path d="M25.8872 72.4768C25.8872 29.9473 60.3643 -4.52979 102.894 -4.52979H579.278V647.761H93.0793C55.9701 647.761 25.8872 617.679 25.8872 580.569V72.4768Z" fill="#538B63"/>
<path d="M1.00613 140.66C-3.62825 98.3833 26.8866 60.3547 69.1629 55.7203L542.71 3.80956L613.789 652.216L130.486 705.197C93.5977 709.24 60.4158 682.615 56.3721 645.727L1.00613 140.66Z" fill="#317B46"/>
<path d="M37.2117 98.1457C37.2117 43.9414 81.153 0 135.357 0H564.178V630.397H112.708C71.0128 630.397 37.2117 596.596 37.2117 554.9V98.1457Z" fill="#066621"/>
<path d="M579.278 380.126C579.278 587.353 453.2 755.344 297.675 755.344C142.15 755.344 53.066 571.51 16.0727 380.126C16.0727 172.898 282.574 31.7086 438.099 31.7086C593.624 31.7086 579.278 172.898 579.278 380.126Z" fill="#256606"/>
<g clip-path="url(#clip0_0_1)">
<path d="M83.5936 560.471L74.0236 559.25L73.0511 566.878L82.6212 568.098L83.5936 560.471Z" fill="white"/>
<path d="M102.734 562.911L112.304 564.131L106.469 609.897L96.8986 608.677L102.734 562.911Z" fill="white"/>
<path d="M102.734 562.911L93.1635 561.691L92.191 569.318L101.761 570.539L102.734 562.911Z" fill="white"/>
<path d="M93.1635 561.691L83.5935 560.471L82.621 568.098L92.191 569.318L93.1635 561.691Z" fill="white"/>
<path d="M131.444 566.571L112.304 564.131L111.331 571.759L130.471 574.199L131.444 566.571Z" fill="white"/>
<path d="M112.304 564.131L102.734 562.911L101.761 570.539L111.331 571.759L112.304 564.131Z" fill="white"/>
<path d="M141.014 567.791L131.444 566.571L130.471 574.199L140.041 575.419L141.014 567.791Z" fill="white"/>
<path d="M120.901 572.979L111.331 571.759L110.359 579.386L119.929 580.607L120.901 572.979Z" fill="white"/>
<path d="M101.301 578.232L91.7312 577.012L90.7587 584.639L100.329 585.859L101.301 578.232Z" fill="white"/>
<path d="M91.7312 577.012L82.1612 575.791L81.1887 583.419L90.7587 584.639L91.7312 577.012Z" fill="white"/>
<path d="M81.7014 583.485L71.6187 582.199L70.6462 589.827L80.7289 591.112L81.7014 583.485Z" fill="white"/>
<path d="M129.499 581.827L119.929 580.607L118.956 588.234L128.526 589.454L129.499 581.827Z" fill="white"/>
<path d="M137.583 590.609L128.013 589.389L127.041 597.017L136.611 598.237L137.583 590.609Z" fill="white"/>
<path d="M150.071 568.946L140.501 567.726L139.528 575.354L149.098 576.574L150.071 568.946Z" fill="white"/>
<path d="M158.668 577.794L149.098 576.574L148.126 584.202L157.696 585.422L158.668 577.794Z" fill="white"/>
<path d="M167.266 586.642L157.696 585.422L156.723 593.049L166.293 594.269L167.266 586.642Z" fill="white"/>
<path d="M165.321 601.897L155.751 600.677L154.778 608.305L164.348 609.525L165.321 601.897Z" fill="white"/>
<path d="M166.293 594.269L156.723 593.049L155.751 600.677L165.321 601.897L166.293 594.269Z" fill="white"/>
<path d="M164.348 609.525L154.778 608.305L153.806 615.933L163.376 617.153L164.348 609.525Z" fill="white"/>
<path d="M153.806 615.933L144.236 614.712L143.263 622.34L152.833 623.56L153.806 615.933Z" fill="white"/>
<path d="M143.263 622.34L133.693 621.12L132.721 628.748L142.291 629.968L143.263 622.34Z" fill="white"/>
<path d="M132.721 628.748L123.151 627.528L122.178 635.156L131.748 636.376L132.721 628.748Z" fill="white"/>
<path d="M114.094 626.373L104.524 625.153L103.551 632.781L113.121 634.001L114.094 626.373Z" fill="white"/>
<path d="M123.151 627.528L113.581 626.308L112.608 633.935L122.178 635.156L123.151 627.528Z" fill="white"/>
<path d="M104.524 625.153L94.9536 623.933L93.9811 631.561L103.551 632.781L104.524 625.153Z" fill="white"/>
<path d="M94.9536 623.933L85.3836 622.713L84.4111 630.34L93.9811 631.561L94.9536 623.933Z" fill="white"/>
<path d="M85.8963 622.778L76.3263 621.558L75.3538 629.186L84.9238 630.406L85.8963 622.778Z" fill="white"/>
<path d="M77.2987 613.93L67.7287 612.71L66.7562 620.338L76.3263 621.558L77.2987 613.93Z" fill="white"/>
<path d="M67.7287 612.71L58.1587 611.49L57.1862 619.118L66.7562 620.338L67.7287 612.71Z" fill="white"/>
<path d="M68.7012 605.082L59.1312 603.862L58.1587 611.49L67.7287 612.71L68.7012 605.082Z" fill="white"/>
<path d="M69.161 597.389L59.591 596.169L58.6185 603.797L68.1885 605.017L69.161 597.389Z" fill="white"/>
<path d="M60.1037 596.234L50.5337 595.014L49.5612 602.642L59.1312 603.862L60.1037 596.234Z" fill="white"/>
<path d="M61.0762 588.607L51.5062 587.387L50.5337 595.014L60.1037 596.234L61.0762 588.607Z" fill="white"/>
<path d="M51.5062 587.387L41.9362 586.166L40.9637 593.794L50.5337 595.014L51.5062 587.387Z" fill="white"/>
<path d="M52.4787 579.759L42.9087 578.539L41.9362 586.166L51.5062 587.387L52.4787 579.759Z" fill="white"/>
<path d="M53.4512 572.131L43.8811 570.911L42.9087 578.539L52.4787 579.759L53.4512 572.131Z" fill="white"/>
<path d="M54.4236 564.503L44.8536 563.283L43.8811 570.911L53.4512 572.131L54.4236 564.503Z" fill="white"/>
<path d="M64.9662 558.096L55.3962 556.876L54.4237 564.503L63.9937 565.723L64.9662 558.096Z" fill="white"/>
<path d="M74.5363 559.316L64.9662 558.096L63.9938 565.723L73.5638 566.944L74.5363 559.316Z" fill="white"/>
<path d="M62.9683 565.593L54.4236 564.503L53.5554 571.314L62.1 572.403L62.9683 565.593Z" fill="#FFD747"/>
<path d="M70.16 593.641L59.5646 592.29L58.6963 599.1L69.2917 600.451L70.16 593.641Z" fill="#FFD747"/>
<path d="M143.767 618.39L134.197 617.17L133.693 621.12L143.263 622.34L143.767 618.39Z" fill="#FFD747"/>
<path d="M157.696 585.422L152.569 584.768L148.679 615.279L153.806 615.933L157.696 585.422Z" fill="#F7CB30"/>
<path d="M152.928 584.675L147.802 584.022L143.912 614.533L149.038 615.186L152.928 584.675Z" fill="#F7CB30"/>
<path d="M153.253 584.855L148.126 584.202L144.236 614.713L149.363 615.366L153.253 584.855Z" fill="#FFD747"/>
<path d="M149.675 612.914L144.549 612.261L144.253 614.576L149.38 615.23L149.675 612.914Z" fill="#F6CB30"/>
<path d="M143.217 619.981L138.09 619.327L137.795 621.643L142.922 622.297L143.217 619.981Z" fill="#F6CB30"/>
<path d="M144.071 620.09L138.945 619.436L138.649 621.752L143.776 622.406L144.071 620.09Z" fill="#F6CB30"/>
<path d="M143.755 615.759L138.628 615.105L138.333 617.421L143.46 618.074L143.755 615.759Z" fill="#F6CB30"/>
<path d="M78.731 598.609L69.161 597.389L67.216 612.645L76.7861 613.865L78.731 598.609Z" fill="#FFD747"/>
<path d="M62.2571 579.344L52.6871 578.124L50.5337 595.014L60.1037 596.234L62.2571 579.344Z" fill="#FFD747"/>
<path d="M62.1 572.403L53.5554 571.314L52.6871 578.124L61.2317 579.214L62.1 572.403Z" fill="#FFD747"/>
<path d="M73.5637 566.944L62.9683 565.593L60.0508 588.476L70.6462 589.827L73.5637 566.944Z" fill="#FDE89D"/>
<path d="M83.6464 568.229L73.051 566.878L71.106 582.134L81.7014 583.485L83.6464 568.229Z" fill="#FDE89D"/>
<path d="M119.929 580.607L110.359 579.386L108.414 594.642L117.984 595.862L119.929 580.607Z" fill="#FDE89D"/>
<path d="M148.639 584.267L138.556 582.981L136.611 598.237L146.694 599.522L148.639 584.267Z" fill="#FDE89D"/>
<path d="M139.069 583.047L129.499 581.827L128.526 589.454L138.096 590.675L139.069 583.047Z" fill="#FDE89D"/>
<path d="M128.013 589.389L118.443 588.169L117.471 595.797L127.041 597.017L128.013 589.389Z" fill="#FDE89D"/>
<path d="M144.74 610.762L135.17 609.542L134.197 617.17L143.767 618.39L144.74 610.762Z" fill="#FDE89D"/>
<path d="M98.8436 593.422L61.0762 588.607L60.1037 596.234L97.8711 601.05L98.8436 593.422Z" fill="#FDE89D"/>
<path d="M101.761 570.539L83.6464 568.229L82.6739 575.857L100.789 578.166L101.761 570.539Z" fill="#FDE89D"/>
<path d="M145.721 607.15L107.441 602.27L106.416 610.306L144.697 615.187L145.721 607.15Z" fill="#FDE89D"/>
<path d="M146.694 599.522L108.201 594.615L107.228 602.242L145.721 607.15L146.694 599.522Z" fill="#FDE89D"/>
<path d="M134.666 613.492L96.8986 608.677L95.8219 617.122L133.589 621.937L134.666 613.492Z" fill="#FDE89D"/>
<path d="M99.8161 585.794L81.7014 583.485L80.7289 591.112L98.8436 593.422L99.8161 585.794Z" fill="#FDE89D"/>
<path d="M149.098 576.574L120.559 572.935L119.587 580.563L148.126 584.202L149.098 576.574Z" fill="#FDE89D"/>
<path d="M97.8711 601.05L78.2973 598.554L76.2481 614.627L95.8219 617.122L97.8711 601.05Z" fill="#FDE89D"/>
<path d="M143.512 617.666L138.385 617.012L138.09 619.327L143.217 619.981L143.512 617.666Z" fill="#F6CB30"/>
<path d="M144.367 617.774L139.24 617.121L138.945 619.436L144.071 620.09L144.367 617.774Z" fill="#F6CB30"/>
<path d="M144.05 613.443L138.924 612.789L138.628 615.105L143.755 615.759L144.05 613.443Z" fill="#F6CB30"/>
<path d="M144.905 613.552L139.778 612.898L139.483 615.214L144.61 615.868L144.905 613.552Z" fill="#F6CB30"/>
<path d="M143.755 615.759L138.628 615.105L138.333 617.421L143.46 618.074L143.755 615.759Z" fill="#F6CB30"/>
<path d="M144.61 615.868L139.483 615.214L139.188 617.529L144.314 618.183L144.61 615.868Z" fill="#F6CB30"/>
<path d="M133.589 621.937L77.1945 614.747L76.3263 621.558L132.721 628.748L133.589 621.937Z" fill="#FFD747"/>
</g>
<g clip-path="url(#clip1_0_1)">
<path d="M99.9154 605.833L92.0615 611.436L96.527 617.696L104.381 612.093L99.9154 605.833Z" fill="white"/>
<path d="M115.623 594.628L123.477 589.025L150.271 626.585L142.417 632.188L115.623 594.628Z" fill="white"/>
<path d="M115.623 594.628L107.769 600.231L112.235 606.491L120.089 600.888L115.623 594.628Z" fill="white"/>
<path d="M107.769 600.231L99.9153 605.833L104.381 612.093L112.235 606.491L107.769 600.231Z" fill="white"/>
<path d="M139.185 577.82L123.477 589.025L127.943 595.285L143.65 584.08L139.185 577.82Z" fill="white"/>
<path d="M123.477 589.025L115.623 594.628L120.089 600.888L127.943 595.285L123.477 589.025Z" fill="white"/>
<path d="M147.039 572.217L139.185 577.82L143.65 584.08L151.504 578.477L147.039 572.217Z" fill="white"/>
<path d="M135.797 589.683L127.943 595.285L132.408 601.545L140.262 595.942L135.797 589.683Z" fill="white"/>
<path d="M124.975 606.848L117.121 612.45L121.587 618.71L129.441 613.108L124.975 606.848Z" fill="white"/>
<path d="M117.121 612.45L109.267 618.053L113.733 624.313L121.587 618.71L117.121 612.45Z" fill="white"/>
<path d="M114.154 624.013L105.879 629.916L110.344 636.176L118.619 630.273L114.154 624.013Z" fill="white"/>
<path d="M148.116 590.34L140.262 595.942L144.728 602.202L152.582 596.6L148.116 590.34Z" fill="white"/>
<path d="M160.015 591.297L152.161 596.9L156.626 603.16L164.48 597.557L160.015 591.297Z" fill="white"/>
<path d="M154.472 566.915L146.618 572.517L151.084 578.777L158.938 573.175L154.472 566.915Z" fill="white"/>
<path d="M166.791 567.572L158.938 573.175L163.403 579.435L171.257 573.832L166.791 567.572Z" fill="white"/>
<path d="M179.111 568.229L171.257 573.832L175.723 580.092L183.576 574.489L179.111 568.229Z" fill="white"/>
<path d="M188.042 580.749L180.188 586.352L184.654 592.612L192.508 587.009L188.042 580.749Z" fill="white"/>
<path d="M183.577 574.489L175.723 580.092L180.188 586.352L188.042 580.749L183.577 574.489Z" fill="white"/>
<path d="M192.508 587.009L184.654 592.612L189.119 598.872L196.973 593.269L192.508 587.009Z" fill="white"/>
<path d="M189.119 598.872L181.265 604.474L185.731 610.734L193.585 605.132L189.119 598.872Z" fill="white"/>
<path d="M185.731 610.734L177.877 616.337L182.343 622.597L190.197 616.994L185.731 610.734Z" fill="white"/>
<path d="M182.343 622.597L174.489 628.2L178.954 634.459L186.808 628.857L182.343 622.597Z" fill="white"/>
<path d="M174.489 628.2L166.635 633.802L171.1 640.062L178.954 634.46L174.489 628.2Z" fill="white"/>
<path d="M81.2398 628.601L73.3859 634.204L77.8515 640.464L85.7054 634.861L81.2398 628.601Z" fill="white"/>
<path d="M84.6282 616.738L76.7743 622.341L81.2399 628.601L89.0938 622.998L84.6282 616.738Z" fill="white"/>
<path d="M92.4822 611.136L84.6282 616.738L89.0938 622.998L96.9477 617.396L92.4822 611.136Z" fill="white"/>
<path d="M88.2523 623.599L81.2398 628.601L85.227 634.19L92.2394 629.188L88.2523 623.599Z" fill="#FFD747"/>
<path d="M183.418 607.493L175.565 613.095L177.877 616.337L185.731 610.734L183.418 607.493Z" fill="#FFD747"/>
<path d="M171.257 573.832L167.05 576.833L184.912 601.873L189.119 598.872L171.257 573.832Z" fill="#F7CB30"/>
<path d="M167.25 576.521L163.043 579.523L180.905 604.563L185.113 601.561L167.25 576.521Z" fill="#F7CB30"/>
<path d="M167.611 576.433L163.403 579.435L181.265 604.474L185.473 601.473L167.611 576.433Z" fill="#FFD747"/>
<path d="M184.038 599.461L179.83 602.462L181.186 604.363L185.393 601.361L184.038 599.461Z" fill="#F6CB30"/>
<path d="M184.095 609.034L179.887 612.035L181.243 613.936L185.451 610.934L184.095 609.034Z" fill="#F6CB30"/>
<path d="M184.796 608.534L180.589 611.535L181.944 613.436L186.152 610.434L184.796 608.534Z" fill="#F6CB30"/>
<path d="M181.623 605.569L177.415 608.57L178.771 610.47L182.979 607.469L181.623 605.569Z" fill="#F6CB30"/>
<path d="M92.2394 629.188L85.227 634.19L89.2141 639.78L96.2265 634.777L92.2394 629.188Z" fill="#FFD747"/>
<path d="M96.9477 617.396L88.2523 623.599L101.649 642.378L110.344 636.176L96.9477 617.396Z" fill="#FDE89D"/>
<path d="M105.222 611.493L96.5269 617.696L105.458 630.216L114.153 624.013L105.222 611.493Z" fill="#FDE89D"/>
<path d="M140.262 595.942L132.408 601.545L141.339 614.065L149.193 608.462L140.262 595.942Z" fill="#FDE89D"/>
<path d="M163.824 579.134L155.549 585.037L164.48 597.557L172.755 591.654L163.824 579.134Z" fill="#FDE89D"/>
<path d="M155.97 584.737L148.116 590.34L152.582 596.6L160.436 590.997L155.97 584.737Z" fill="#FDE89D"/>
<path d="M152.161 596.9L144.307 602.503L148.773 608.762L156.626 603.16L152.161 596.9Z" fill="#FDE89D"/>
<path d="M178.953 601.233L171.099 606.835L175.565 613.095L183.418 607.493L178.953 601.233Z" fill="#FDE89D"/>
<path d="M133.485 619.668L102.491 641.778L106.956 648.038L137.951 625.928L133.485 619.668Z" fill="#FDE89D"/>
<path d="M120.089 600.888L105.222 611.493L109.688 617.753L124.554 607.148L120.089 600.888Z" fill="#FDE89D"/>
<path d="M177.221 597.914L145.805 620.325L150.51 626.92L181.925 604.51L177.221 597.914Z" fill="#FDE89D"/>
<path d="M172.755 591.654L141.165 614.19L145.63 620.45L177.221 597.914L172.755 591.654Z" fill="#FDE89D"/>
<path d="M173.412 610.077L142.417 632.188L147.361 639.118L178.356 617.008L173.412 610.077Z" fill="#FDE89D"/>
<path d="M129.02 613.408L114.153 624.013L118.619 630.273L133.485 619.668L129.02 613.408Z" fill="#FDE89D"/>
<path d="M158.937 573.175L135.516 589.883L139.982 596.143L163.403 579.435L158.937 573.175Z" fill="#FDE89D"/>
<path d="M137.951 625.928L121.887 637.387L131.297 650.577L147.361 639.118L137.951 625.928Z" fill="#FDE89D"/>
<path d="M182.739 607.134L178.532 610.135L179.887 612.035L184.095 609.034L182.739 607.134Z" fill="#F6CB30"/>
<path d="M183.441 606.633L179.233 609.635L180.589 611.535L184.796 608.534L183.441 606.633Z" fill="#F6CB30"/>
<path d="M180.267 603.668L176.06 606.67L177.415 608.57L181.623 605.569L180.267 603.668Z" fill="#F6CB30"/>
<path d="M180.968 603.168L176.761 606.17L178.117 608.07L182.324 605.068L180.968 603.168Z" fill="#F6CB30"/>
<path d="M181.623 605.569L177.415 608.57L178.771 610.47L182.979 607.469L181.623 605.569Z" fill="#F6CB30"/>
<path d="M182.324 605.069L178.117 608.07L179.472 609.97L183.68 606.969L182.324 605.069Z" fill="#F6CB30"/>
<path d="M178.356 617.008L132.074 650.023L136.061 655.613L182.343 622.597L178.356 617.008Z" fill="#FFD747"/>
</g>
<defs>
<clipPath id="clip0_0_1">
<rect width="137.477" height="80.0531" fill="white" transform="translate(45.8261 555.655) rotate(7.26567)"/>
</clipPath>
<clipPath id="clip1_0_1">
<rect width="137.477" height="80.0531" fill="white" transform="translate(68.9203 627.944) rotate(-35.5025)"/>
</clipPath>
</defs>
</svg>
